<?xml version="1.0" standalone="no"?>
<!DOCTYPE svg PUBLIC "-//W3C//DTD SVG 20010904//EN"
 "http://www.w3.org/TR/2001/REC-SVG-20010904/DTD/svg10.dtd">
<svg version="1.0" xmlns="http://www.w3.org/2000/svg"
 width="3072.000000pt" height="2048.000000pt" viewBox="0 0 3072.000000 2048.000000"
 preserveAspectRatio="xMidYMid meet">
<g transform="translate(0.000000,2048.000000) scale(0.100000,-0.100000)"
fill="#1A237E" stroke="none">
<path d="M18285 19104 c-516 -38 -990 -273 -1324 -659 -436 -503 -583 -1160
-405 -1813 112 -413 355 -771 698 -1029 346 -260 746 -393 1183 -394 719 -1
1346 359 1700 977 326 568 345 1260 53 1844 -330 657 -954 1050 -1705 1073
-82 3 -172 3 -200 1z" fill="#ED7D31"/>
<path d="M3631 18793 c-55 -29 -76 -65 -76 -133 0 -48 4 -63 25 -85 53 -57
124 -71 189 -37 96 48 106 181 19 245 -38 28 -114 33 -157 10z" fill="#4472C4"/> 
<path d="M4462 18793 c-47 -23 -86 -93 -79 -143 17 -132 182 -175 270 -71 22
26 27 43 27 83 0 112 -116 181 -218 131z" fill="#4472C4"/> 
<path d="M5285 18791 c-52 -31 -68 -58 -72 -114 -3 -40 1 -60 16 -85 42 -67
125 -90 197 -56 139 66 85 274 -71 274 -22 0 -53 -8 -70 -19z"/>
<path d="M6124 18801 c-11 -5 -34 -25 -52 -45 -79 -90 -9 -236 113 -236 67 0
138 58 150 123 9 44 -19 112 -56 138 -32 23 -122 34 -155 20z"/>
<path d="M3613 17958 c-61 -43 -80 -122 -44 -188 25 -47 68 -71 130 -72 83 0
140 48 148 127 6 51 -14 94 -60 129 -46 35 -127 36 -174 4z"/>
<path d="M4452 17960 c-64 -39 -89 -118 -57 -179 73 -141 285 -98 285 57 0 53
-20 90 -66 120 -44 29 -116 30 -162 2z"/>
<path d="M5274 17961 c-63 -38 -86 -142 -44 -201 45 -63 151 -85 207 -44 92
69 94 181 4 241 -44 29 -122 31 -167 4z"/>
<path d="M6102 17959 c-43 -28 -62 -67 -62 -130 0 -46 4 -55 38 -89 51 -52
105 -61 169 -28 57 28 83 62 89 114 5 50 -20 101 -65 131 -45 31 -123 31 -169
2z"/>
<path d="M24826 17851 c-40 -40 -46 -52 -38 -67 6 -11 148 -156 316 -323 168
-167 306 -307 306 -310 0 -3 -145 -148 -322 -323 l-323 -317 53 -53 52 -53
318 318 c174 174 322 317 328 317 7 0 152 -138 324 -307 171 -170 317 -309
324 -311 7 -2 35 18 62 43 l49 45 -330 325 -330 325 324 321 324 321 -49 49
c-26 27 -51 49 -54 49 -4 0 -149 -142 -323 -315 -175 -173 -321 -315 -325
-315 -4 0 -149 142 -322 315 l-315 315 -49 -49z"/>
<path d="M3598 17122 c-35 -33 -41 -45 -46 -90 -8 -90 52 -152 148 -152 64 0
106 23 131 72 55 106 -11 208 -135 208 -52 0 -60 -3 -98 -38z"/>
<path d="M4431 17122 c-67 -64 -68 -138 -2 -204 36 -35 43 -38 97 -38 33 0 70
6 84 13 41 21 70 74 70 129 0 89 -55 138 -154 138 -50 0 -59 -3 -95 -38z"/>
<path d="M5273 17140 c-78 -47 -87 -169 -17 -232 11 -9 35 -20 55 -26 157 -42
264 142 144 247 -31 27 -43 31 -93 31 -39 0 -67 -6 -89 -20z"/>
<path d="M7130 17150 l-955 -5 -58 -23 c-126 -51 -226 -164 -258 -292 -10 -39
-12 -8502 -3 -8565 9 -59 61 -162 107 -212 54 -59 138 -108 227 -132 l75 -21
4262 0 c3759 0 4270 2 4335 15 221 46 363 194 387 405 13 113 7 8451 -7 8500
-15 58 -64 149 -103 193 -44 50 -129 103 -206 128 -54 18 -171 19 -3452 17
-1868 -2 -3826 -5 -4351 -8z m7713 -144 c79 -21 133 -51 182 -103 78 -81 76
-56 73 -693 l-3 -565 -1305 0 -1305 0 0 680 0 680 1100 5 c605 3 1123 6 1152
8 29 1 76 -4 106 -12z m-2508 -681 l0 -680 -1660 0 -1660 0 -3 677 -2 678 562
3 c310 1 1058 2 1663 2 l1100 0 0 -680z m-3477 -2 l-3 -678 -1427 -3 -1428 -2
0 572 0 573 24 50 c31 66 80 110 152 140 l59 25 1313 0 1312 0 -2 -677z m2
-1383 l0 -560 -1430 0 -1430 0 0 560 0 560 1430 0 1430 0 0 -560z m3480 0 l0
-560 -1665 0 -1665 0 0 560 0 560 1665 0 1665 0 0 -560z m2760 0 l0 -560
-1307 2 -1308 3 -3 545 c-1 300 0 551 3 558 3 9 275 12 1310 12 l1305 0 0
-560z m-2762 -1457 l-3 -748 -1667 -3 -1668 -2 0 743 c0 409 3 747 7 750 3 4
755 7 1670 7 l1663 0 -2 -747z m2762 2 l0 -745 -1307 2 -1308 3 -3 743 -2 742
1310 0 1310 0 0 -745z m-6242 -1582 l-3 -698 -1427 -3 -1428 -2 0 700 0 700
1430 0 1430 0 -2 -697z m3484 1 c2 -377 0 -690 -3 -695 -3 -5 -680 -8 -1665
-7 l-1659 3 -3 693 -2 692 1665 0 1665 0 2 -686z m2758 509 c0 -98 3 -411 7
-695 l6 -518 -1311 0 -1312 0 0 695 0 695 1305 0 1305 0 0 -177z m-6240 -2112
l0 -750 -42 -6 c-24 -3 -666 -4 -1428 -3 l-1385 3 -3 753 -2 752 1430 0 1430
0 0 -749z m3473 477 c4 -149 7 -487 7 -750 l0 -478 -1182 -2 c-651 0 -1235 -3
-1298 -5 -63 -2 -280 0 -482 3 l-368 6 0 749 0 749 1658 0 1659 0 6 -272z
m2777 -483 l0 -745 -1310 0 -1310 0 0 63 c0 34 -2 369 -4 745 l-4 682 1314 0
1314 0 0 -745z m-6252 -1572 l-3 -678 -1275 -3 c-1155 -2 -1281 -1 -1334 14
-109 30 -188 99 -225 198 -20 55 -21 71 -21 601 l0 545 1430 0 1430 0 -2 -677z
m3480 0 l-3 -678 -1640 -3 c-902 -1 -1650 0 -1662 3 l-23 5 0 675 0 675 1665
0 1665 0 -2 -677z m2772 125 l0 -553 -24 -51 c-46 -100 -120 -159 -233 -188
-54 -14 -188 -16 -1215 -14 l-1153 3 -3 678 -2 677 1315 0 1315 0 0 -552z"/>
<path d="M21540 15980 c-737 -4 -1064 -8 -1085 -16 -109 -40 -192 -114 -239
-213 l-31 -66 0 -2000 0 -2000 32 -65 c42 -86 110 -153 202 -198 l75 -37 2520
-6 c1472 -4 2542 -3 2571 2 120 22 237 114 296 234 l34 70 3 1975 2 1975 -25
64 c-50 123 -122 202 -234 255 l-66 31 -1500 0 c-825 0 -1975 -2 -2555 -5z
m275 -660 l0 -515 -742 -3 -743 -2 -2 357 c-1 197 0 385 1 418 4 104 49 178
134 223 l52 27 305 5 c168 3 460 6 650 5 l345 0 0 -515z m1777 513 c2 -5 2
-236 0 -515 l-3 -508 -814 0 -815 0 0 515 0 515 814 0 c448 0 816 -3 818 -7z
m1999 -24 c62 -29 120 -84 153 -144 20 -39 21 -53 24 -447 l3 -408 -1016 0
-1015 0 0 515 0 515 898 -2 897 -3 56 -26z m-2003 -1626 l-3 -478 -812 -3
-813 -2 0 480 0 480 815 0 815 0 -2 -477z m2184 260 c2 -120 2 -336 0 -480
l-5 -263 -1013 0 -1014 0 0 480 0 480 1014 0 1013 0 5 -217z m-3952 -1362 c0
-427 -2 -480 -16 -485 -9 -3 -343 -6 -743 -6 l-728 0 -7 53 c-8 70 -8 902 1
910 3 4 341 7 750 7 l743 0 0 -479z m1770 -1 l0 -479 -32 -6 c-18 -3 -384 -4
-813 -3 l-780 3 -3 483 -2 482 815 0 815 0 0 -480z m2180 1 l0 -479 -22 -6
c-30 -8 -1947 -8 -1987 0 l-31 7 0 342 c0 188 3 403 7 478 l6 137 1014 0 1013
0 0 -479z m-3952 -1098 l-3 -458 -623 -3 -624 -2 -63 30 c-67 32 -111 74 -147
143 -22 41 -23 51 -26 395 l-3 352 746 0 745 0 -2 -457z m1770 0 l-3 -458
-806 -3 -806 -2 -7 37 c-3 21 -6 228 -6 461 l0 422 815 0 815 0 -2 -457z
m2186 426 c3 -17 6 -165 6 -328 0 -331 -5 -367 -63 -443 -42 -55 -98 -93 -160
-107 -56 -13 -1803 -16 -1810 -3 -10 16 -19 535 -12 717 l7 195 1013 0 1013 0
6 -31z"/>
<path d="M18306 14189 c-14 -17 -26 -38 -26 -47 0 -9 116 -133 258 -274 143
-142 257 -260 254 -263 -3 -3 -624 -5 -1381 -5 -797 0 -1393 -4 -1416 -10 -38
-9 -74 -42 -75 -68 0 -8 10 -28 22 -44 l22 -31 1424 5 1425 6 -257 -257 c-222
-223 -256 -261 -256 -287 0 -38 36 -74 75 -74 24 0 57 28 189 158 89 88 220
215 291 283 207 197 225 217 225 243 0 17 -22 45 -72 93 -118 111 -362 349
-494 481 -139 138 -161 148 -208 91z"/>
<path d="M4205 11009 c-88 -12 -165 -34 -230 -66 -181 -92 -300 -227 -369
-420 -29 -84 -31 -95 -30 -233 0 -128 4 -154 26 -222 39 -117 92 -204 177
-288 87 -86 160 -132 271 -171 90 -32 224 -53 284 -44 102 15 188 41 276 83
165 80 297 234 357 417 35 108 42 261 18 371 -54 246 -235 455 -463 535 -47
17 -224 51 -242 48 -3 -1 -36 -6 -75 -10z" fill="#ED7D31"/> 
<path d="M22964 11012 c-5 -4 -18 -18 -27 -32 -16 -22 -17 -92 -17 -862 0
-471 -4 -838 -9 -838 -5 0 -21 15 -37 34 -16 18 -109 122 -208 230 -129 142
-184 196 -200 196 -27 0 -76 -49 -76 -76 1 -10 6 -29 13 -41 13 -22 478 -543
518 -579 60 -54 47 -63 360 257 158 162 293 304 300 316 25 45 -11 103 -64
103 -27 0 -57 -26 -237 -205 -113 -113 -209 -205 -213 -205 -4 0 -7 373 -7
829 0 823 0 828 -21 855 -20 25 -53 33 -75 18z"/>
<path d="M15940 10458 c-27 -29 -25 -60 5 -88 21 -19 40 -24 122 -31 156 -13
265 -40 388 -98 182 -85 317 -223 462 -471 89 -151 150 -235 223 -304 130
-122 239 -168 401 -168 158 0 249 35 360 139 90 85 152 180 265 407 112 223
165 307 236 371 98 88 188 116 289 90 79 -21 109 -36 161 -83 77 -70 141 -180
238 -413 99 -236 177 -352 288 -428 66 -44 166 -81 223 -81 63 0 163 37 227
85 115 84 187 188 348 496 131 252 213 356 323 407 46 21 63 24 125 20 117 -8
155 -33 356 -237 96 -98 188 -186 203 -196 35 -23 83 -22 109 2 47 42 10 93
-299 399 -77 77 -170 138 -251 165 -51 17 -81 20 -160 17 -84 -3 -105 -7 -157
-33 -136 -69 -235 -195 -395 -504 -118 -230 -172 -312 -245 -380 -62 -57 -121
-82 -194 -82 -141 -1 -239 109 -356 397 -101 248 -177 378 -275 467 -186 168
-427 183 -610 39 -103 -82 -156 -156 -280 -397 -179 -347 -249 -439 -383 -505
-64 -31 -71 -33 -151 -28 -105 7 -187 44 -278 126 -78 69 -131 137 -237 305
-137 217 -240 335 -372 428 -139 97 -255 139 -479 174 -143 22 -205 20 -230
-7z"/>
<path d="M18845 8541 c-33 -9 -73 -25 -90 -34 -79 -44 -145 -129 -175 -225
-20 -63 -20 -96 -20 -2048 0 -1431 3 -1998 11 -2036 26 -122 99 -217 207 -270
l67 -33 3354 -3 c3046 -2 3360 -1 3411 14 144 41 249 141 285 269 11 41 15
380 20 1990 5 1389 3 1961 -5 2015 -6 41 -21 98 -35 128 -31 67 -125 167 -189
199 -111 57 135 53 -3461 52 -3127 0 -3323 -1 -3380 -18z m6739 -150 c72 -36
116 -79 148 -146 l28 -60 0 -347 0 -348 -987 -2 c-1302 -4 -1250 -4 -1258 4
-11 10 -6 911 5 918 5 3 461 6 1012 5 l1003 0 49 -24z m-4775 6 l244 -2 -1
-445 c-1 -245 -2 -451 -2 -458 0 -10 -242 -12 -1167 -10 l-1168 3 0 375 c0
347 1 378 19 410 36 68 94 116 159 129 26 6 1336 4 1916 -2z m2551 -446 l0
-459 -282 -6 c-156 -4 -641 -6 -1078 -4 l-795 3 0 455 0 455 690 5 c380 3 864
6 1078 8 l387 2 0 -459z m-2310 -1089 l0 -479 -332 -6 c-182 -4 -706 -7 -1163
-7 l-832 0 -7 46 c-8 62 -8 909 1 917 3 4 530 7 1170 7 l1163 0 0 -478z m2308
9 c1 -256 -1 -468 -6 -473 -4 -4 -490 -11 -1080 -15 l-1072 -6 0 481 0 482
1078 -2 1077 -3 3 -464z m2402 -1 l0 -470 -472 -2 c-260 -1 -765 -3 -1123 -3
l-650 0 -3 460 c-1 253 0 466 3 473 3 9 238 12 1125 12 l1120 0 0 -470z
m-2402 -1126 l2 -501 -587 -7 c-703 -8 -1448 -8 -1520 1 l-53 6 0 498 0 499
993 3 c545 1 1030 2 1077 2 l85 0 3 -501z m2400 4 l-3 -503 -1117 -3 -1118 -2
0 505 0 505 1120 0 1120 0 -2 -502z m-4713 -1178 l0 -525 -1060 -3 c-775 -2
-1071 0 -1102 9 -54 15 -116 67 -142 122 -25 52 -27 90 -23 570 l2 357 1163
-2 1162 -3 0 -525z m4715 101 c0 -472 1 -464 -60 -541 -17 -21 -54 -50 -82
-64 l-52 -26 -1023 0 -1023 0 0 524 0 525 38 3 c20 2 524 5 1120 6 l1082 4 0
-431z m-2400 -106 l0 -525 -1074 0 -1073 0 -6 83 c-4 45 -7 281 -7 525 l0 442
1080 0 1080 0 0 -525z"/>
<path d="M12226 7229 c-25 -30 -26 -33 -26 -182 0 -141 13 -267 39 -377 84
-363 346 -688 671 -831 99 -44 236 -85 329 -99 43 -7 760 -10 2069 -8 1101 2
2002 0 2002 -3 0 -3 -95 -100 -211 -215 -115 -115 -219 -224 -230 -241 -26
-41 -21 -81 12 -106 21 -15 33 -17 53 -11 14 5 132 115 263 244 131 129 271
266 310 303 40 37 75 78 79 91 7 30 -17 77 -53 106 -16 12 -96 88 -178 168
-392 383 -413 402 -438 402 -37 0 -77 -36 -77 -70 0 -32 7 -40 303 -329 103
-100 187 -185 187 -187 0 -2 -899 -4 -1997 -4 -1676 0 -2012 3 -2083 15 -276
45 -511 184 -673 398 -103 135 -158 259 -206 467 -16 69 -31 229 -31 335 0 96
-8 129 -39 152 -26 20 -48 15 -75 -18z"/>
<path d="M11420 4786 c-137 -30 -229 -114 -279 -251 l-22 -60 3 -1150 3 -1150
27 -57 c59 -127 174 -208 323 -229 58 -8 659 -10 2175 -6 1943 5 2099 6 2145
22 80 28 151 79 200 146 86 117 80 20 83 1283 2 1107 2 1120 -18 1181 -50 152
-156 247 -305 274 -89 17 -4260 14 -4335 -3z m2890 -521 l0 -385 -687 2 -688
3 0 375 0 375 475 5 c261 3 571 6 688 8 l212 2 0 -385z m1496 350 c24 -14 58
-47 76 -73 l33 -47 3 -307 3 -308 -731 0 -730 0 0 380 0 380 538 3 c731 5 753
4 808 -28z m-3026 -365 l0 -390 -637 -2 c-351 -1 -692 -2 -758 -2 l-120 -1 -3
298 c-2 285 -1 300 19 347 23 53 72 104 123 126 25 11 164 13 704 14 l672 0 0
-390z m1532 -892 c2 -205 1 -376 -2 -380 -8 -11 -1343 -21 -1359 -10 -18 13
-26 318 -16 575 l7 187 683 0 684 0 3 -372z m1608 -8 l0 -380 -730 0 -730 0 0
380 0 380 730 0 730 0 0 -380z m-3140 -4 l0 -374 -47 -4 c-27 -2 -367 -3 -758
-3 l-710 0 0 370 0 370 365 5 c201 3 542 6 758 8 l392 2 0 -374z m2 -881 c1
-195 2 -372 3 -392 l0 -38 -640 -6 c-709 -7 -706 -7 -788 56 -26 20 -55 54
-68 82 -23 47 -24 57 -27 337 -2 159 -1 295 2 303 4 11 140 13 761 13 l755 0
2 -355z m1533 -35 l0 -385 -687 -3 -688 -2 -2 137 c-5 392 -5 562 -1 601 l6
42 686 -2 686 -3 0 -385z m1605 90 c0 -299 0 -301 -25 -349 -13 -27 -38 -60
-56 -75 -68 -58 -47 -56 -735 -56 l-634 0 -2 358 c-2 196 -1 372 1 390 l3 32
724 0 724 0 0 -300z"/>
<path d="M23890 3240 c-457 -118 -704 -606 -535 -1056 82 -218 287 -406 525
-482 117 -37 222 -46 331 -28 405 66 687 388 689 785 0 91 -4 113 -37 231 -34
119 -119 256 -219 351 -115 109 -210 159 -382 205 -79 21 -279 18 -372 -6z" fill="#4472C4"/>
m358 -141 c118 -31 213 -83 296 -160 177 -165 252 -402 196 -621 -54 -215
-212 -385 -432 -466 -64 -23 -88 -27 -193 -27 -137 0 -190 13 -320 79 -149 75
-280 236 -326 401 -22 77 -19 286 5 355 71 208 225 367 417 428 35 12 71 23
79 26 42 13 205 5 278 -15z"/>
</g>
</svg>